<svg width="52" height="52" fill="none" xmlns="http://www.w3.org/2000/svg"><circle cx="26" cy="26" r="26" fill="url(#paint0_linear_1_835)"/><path d="M31.75 34H20.277v-1.957l5.684-6.2c.82-.913 1.402-1.675 1.746-2.284.352-.618.527-1.235.527-1.852 0-.813-.23-1.469-.691-1.969-.453-.5-1.066-.75-1.84-.75-.922 0-1.637.282-2.144.844-.508.563-.762 1.332-.762 2.309h-2.848c0-1.04.235-1.973.703-2.801a4.919 4.919 0 012.028-1.945c.883-.461 1.898-.692 3.047-.692 1.656 0 2.96.418 3.914 1.254.96.828 1.441 1.977 1.441 3.445 0 .852-.242 1.746-.727 2.684-.476.93-1.261 1.988-2.355 3.176l-4.172 4.465h7.922V34z" fill="#fff"/><defs><linearGradient id="paint0_linear_1_835" x1="26" y1="0" x2="26" y2="52" gradientUnits="userSpaceOnUse"><stop stop-color="#651EFF"/><stop offset="1" stop-color="#4485FA"/></linearGradient></defs></svg>