<svg width="52" height="52" fill="none" xmlns="http://www.w3.org/2000/svg"><circle cx="26" cy="26" r="26" fill="url(#paint0_linear_1_839)"/><path d="M23.57 24.168h1.735c.875-.008 1.566-.234 2.074-.68.515-.445.773-1.09.773-1.933 0-.813-.215-1.442-.644-1.887-.422-.453-1.07-.68-1.945-.68-.766 0-1.395.223-1.887.668-.492.438-.738 1.012-.738 1.723H20.09c0-.875.23-1.672.691-2.39.469-.72 1.117-1.278 1.946-1.677.835-.406 1.77-.609 2.8-.609 1.703 0 3.04.43 4.008 1.29.977.85 1.465 2.038 1.465 3.562 0 .765-.246 1.488-.738 2.168a4.57 4.57 0 01-1.887 1.523c.938.32 1.648.824 2.133 1.512.492.687.738 1.508.738 2.46 0 1.532-.527 2.75-1.582 3.657-1.047.906-2.426 1.36-4.137 1.36-1.64 0-2.984-.438-4.03-1.313-1.048-.875-1.571-2.04-1.571-3.492h2.847c0 .75.25 1.36.75 1.828.508.469 1.188.703 2.04.703.882 0 1.578-.234 2.085-.703.508-.469.762-1.149.762-2.04 0-.898-.265-1.59-.797-2.073-.531-.485-1.32-.727-2.367-.727H23.57v-2.25z" fill="#fff"/><defs><linearGradient id="paint0_linear_1_839" x1="26" y1="0" x2="26" y2="52" gradientUnits="userSpaceOnUse"><stop stop-color="#651EFF"/><stop offset="1" stop-color="#4485FA"/></linearGradient></defs></svg>