<svg width="26" height="26" fill="none" xmlns="http://www.w3.org/2000/svg"><path d="M13 15.255A2.26 2.26 0 0015.255 13c0-.491-.16-.944-.427-1.315a2.254 2.254 0 00-1.829-.94 2.256 2.256 0 00-2.256 2.254 2.258 2.258 0 002.255 2.256zm4.925-5.015V8.07h-.283l-1.89.007.008 2.172 2.165-.007z" fill="#7774FE"/><path d="M13 1.733C6.788 1.733 1.733 6.788 1.733 13S6.788 24.267 13 24.267 24.267 19.212 24.267 13 19.212 1.733 13 1.733zm6.407 9.952v5.247a2.48 2.48 0 01-2.476 2.477H9.069a2.479 2.479 0 01-2.477-2.477V9.069A2.479 2.479 0 019.07 6.593h7.861a2.48 2.48 0 012.477 2.476v2.616z" fill="#7774FE"/><path d="M16.504 13A3.509 3.509 0 0113 16.505 3.509 3.509 0 019.496 13c0-.465.092-.909.257-1.315H7.84v5.246c0 .678.55 1.228 1.229 1.228h7.861c.678 0 1.228-.55 1.228-1.227v-5.247h-1.913c.165.406.26.85.26 1.315z" fill="#7774FE"/></svg>