<svg width="227" height="24" fill="none" xmlns="http://www.w3.org/2000/svg"><path d="M18.096 23.402H.032v-5.284h17.899v-3.645H4.424L.032 9.088V5.374L4.176.262h18.063v5.282H4.34v3.647h13.535l4.364 5.337v3.774l-4.143 5.1z" fill="url(#paint0_linear_1_531)"/><path d="M44.833 23.402v-8.928h-13.59v8.895l-4.31.033V.262h4.31v8.929h13.59V.263h4.308v8.894l-2.155 2.658 2.155 2.659v8.928h-4.308z" fill="url(#paint1_linear_1_531)"/><path d="M53.836 23.402V.262h4.309v23.14h-4.31z" fill="url(#paint2_linear_1_531)"/><path d="M66.983 23.402L62.84 18.29V.263h4.309v17.856h17.897v5.283H66.983z" fill="url(#paint3_linear_1_531)"/><path d="M93.857 23.402l-4.143-5.112V.263h4.309v17.856h17.898v5.283H93.857z" fill="url(#paint4_linear_1_531)"/><path d="M134.652 23.402h-13.921l-4.143-5.112V5.375l4.143-5.112h18.064v5.281h-17.898V18.12h13.588v-3.646h-9.28V9.19h13.589v9.112l-4.142 5.1z" fill="url(#paint5_linear_1_531)"/><path d="M161.388 23.402v-8.928H147.8v8.895l-4.309.033V.262h18.064l4.143 5.113v3.782l-2.155 2.658 2.155 2.659v8.928h-4.31zm0-17.858H147.8v3.647h13.588V5.544z" fill="url(#paint6_linear_1_531)"/><path d="M188.457 23.402h-13.921l-4.144-5.112V5.375l4.144-5.112h13.921l4.142 5.112V18.29l-4.142 5.112zm-.167-17.858h-13.589V18.12h13.589V5.544z" fill="url(#paint7_linear_1_531)"/><path d="M222.208 23.402h-7.9l-2.486-3.068-2.486 3.068h-7.899l-4.144-5.112V.263h4.309v17.856h8.065V.263h4.309v17.856h8.064V.263h4.309V18.29l-4.141 5.112z" fill="url(#paint8_linear_1_531)"/><defs><linearGradient id="paint0_linear_1_531" x1="11.136" y1="23.402" x2="11.136" y2=".263" gradientUnits="userSpaceOnUse"><stop stop-color="#3CAAFF"/><stop offset="1" stop-color="#651EFF"/></linearGradient><linearGradient id="paint1_linear_1_531" x1="38.038" y1="23.402" x2="38.038" y2=".263" gradientUnits="userSpaceOnUse"><stop stop-color="#3CAAFF"/><stop offset="1" stop-color="#651EFF"/></linearGradient><linearGradient id="paint2_linear_1_531" x1="55.99" y1="23.402" x2="55.99" y2=".263" gradientUnits="userSpaceOnUse"><stop stop-color="#3CAAFF"/><stop offset="1" stop-color="#651EFF"/></linearGradient><linearGradient id="paint3_linear_1_531" x1="73.942" y1="23.402" x2="73.942" y2=".263" gradientUnits="userSpaceOnUse"><stop stop-color="#3CAAFF"/><stop offset="1" stop-color="#651EFF"/></linearGradient><linearGradient id="paint4_linear_1_531" x1="100.818" y1="23.402" x2="100.818" y2=".263" gradientUnits="userSpaceOnUse"><stop stop-color="#3CAAFF"/><stop offset="1" stop-color="#651EFF"/></linearGradient><linearGradient id="paint5_linear_1_531" x1="127.691" y1="23.402" x2="127.691" y2=".263" gradientUnits="userSpaceOnUse"><stop stop-color="#3CAAFF"/><stop offset="1" stop-color="#651EFF"/></linearGradient><linearGradient id="paint6_linear_1_531" x1="154.594" y1="23.402" x2="154.594" y2=".263" gradientUnits="userSpaceOnUse"><stop stop-color="#3CAAFF"/><stop offset="1" stop-color="#651EFF"/></linearGradient><linearGradient id="paint7_linear_1_531" x1="181.495" y1="23.402" x2="181.495" y2=".263" gradientUnits="userSpaceOnUse"><stop stop-color="#3CAAFF"/><stop offset="1" stop-color="#651EFF"/></linearGradient><linearGradient id="paint8_linear_1_531" x1="211.822" y1="23.402" x2="211.822" y2=".263" gradientUnits="userSpaceOnUse"><stop stop-color="#3CAAFF"/><stop offset="1" stop-color="#651EFF"/></linearGradient></defs></svg>