<svg width="26" height="26" fill="none" xmlns="http://www.w3.org/2000/svg"><path d="M10.882 17.815L4.815 12.71V4.815c0-.578.481-.963.963-.963h14.444c.578 0 .963.385.963.963v7.896l-6.066 5.104h-4.237zM13 0l3.274 2.889H9.726L13 0z" fill="#7774FE"/><path d="M3.852 8.089v5.296l3.66 3.082 2.118 1.83-5.682 4.91.77.77 5.778-4.91h5.008l5.778 4.91.77-.77-5.682-4.91 2.119-1.83 3.66-3.082V8.09l2.888 2.504v13.481c0 1.06-.867 1.926-1.926 1.926H2.89a1.932 1.932 0 01-1.926-1.926V10.593l2.889-2.504z" fill="#7774FE"/></svg>