<svg width="49" height="54" fill="none" xmlns="http://www.w3.org/2000/svg"><path d="M21.412.721L2.692 11.53A5.382 5.382 0 000 16.192v21.616a5.384 5.384 0 002.692 4.663l11.532 6.657c-6.464-3.731-5.09-9.66-1.692-15.448 2.404-4.092 12.272-21.213 17.846-30.891L26.796.72a5.385 5.385 0 00-5.384 0z" fill="url(#paint0_linear_1_527)"/><path d="M48.207 37.809V16.192c0-1.923-1.025-3.7-2.692-4.662L26.795.722a5.38 5.38 0 00-5.383 0L9.88 7.38c6.463-3.732 10.912.423 14.224 6.26 2.343 4.128 12.236 21.235 17.83 30.9l3.581-2.068a5.387 5.387 0 002.692-4.663z" fill="url(#paint1_linear_1_527)"/><path d="M48.207 24.493c0 7.463-5.82 9.238-12.533 9.187-3.232-.023-13.428-.024-23.13-.02l-.012.02c-3.398 5.789-4.771 11.717 1.69 15.449l7.19 4.15a5.385 5.385 0 005.383 0l18.72-10.807a5.387 5.387 0 002.693-4.663V24.492z" fill="url(#paint2_linear_1_527)"/><defs><linearGradient id="paint0_linear_1_527" x1="15.189" y1="7.773" x2="15.189" y2="54.796" gradientUnits="userSpaceOnUse"><stop stop-color="#651EFF"/><stop offset=".144" stop-color="#5A43FF"/><stop offset=".319" stop-color="#4F68FF"/><stop offset=".493" stop-color="#4785FF"/><stop offset=".666" stop-color="#4199FF"/><stop offset=".836" stop-color="#3DA6FF"/><stop offset="1" stop-color="#3CAAFF"/></linearGradient><linearGradient id="paint1_linear_1_527" x1="34.993" y1="11.511" x2="22.559" y2="36.02" gradientUnits="userSpaceOnUse"><stop stop-color="#3CAAFF"/><stop offset=".144" stop-color="#4785FF"/><stop offset=".319" stop-color="#5260FF"/><stop offset=".493" stop-color="#5A43FF"/><stop offset=".666" stop-color="#602FFF"/><stop offset=".836" stop-color="#6422FF"/><stop offset="1" stop-color="#651EFF"/></linearGradient><linearGradient id="paint2_linear_1_527" x1="9.679" y1="39.247" x2="48.208" y2="39.247" gradientUnits="userSpaceOnUse"><stop stop-color="#651EFF"/><stop offset=".144" stop-color="#5A43FF"/><stop offset=".319" stop-color="#4F68FF"/><stop offset=".493" stop-color="#4785FF"/><stop offset=".666" stop-color="#4199FF"/><stop offset=".836" stop-color="#3DA6FF"/><stop offset="1" stop-color="#3CAAFF"/></linearGradient></defs></svg>