<svg width="61" height="48" fill="none" xmlns="http://www.w3.org/2000/svg"><path d="M10.925 47.372v-3.108c0-1.192-.721-1.969-1.958-1.969-.618 0-1.288.207-1.752.88-.36-.569-.876-.88-1.65-.88-.515 0-1.03.156-1.442.725v-.62H3.04v4.973h1.082v-2.746c0-.88.464-1.295 1.185-1.295.722 0 1.082.467 1.082 1.295v2.746h1.082v-2.746c0-.88.516-1.295 1.186-1.295.721 0 1.082.467 1.082 1.295v2.746h1.185zm16.027-4.973H25.2v-1.502h-1.082v1.502h-.979v.984h.98v2.28c0 1.14.463 1.813 1.7 1.813.463 0 .979-.156 1.34-.363l-.31-.932c-.309.207-.67.259-.927.259-.515 0-.722-.311-.722-.83v-2.227h1.753V42.4zm9.174-.104c-.619 0-1.031.311-1.289.725v-.62h-1.082v4.973h1.082v-2.797c0-.83.361-1.295 1.031-1.295.206 0 .464.051.67.103l.31-1.036c-.207-.052-.516-.052-.722-.052zm-13.863.518c-.516-.362-1.237-.518-2.01-.518-1.237 0-2.061.622-2.061 1.606 0 .829.618 1.295 1.7 1.45l.516.052c.566.104.876.26.876.519 0 .362-.413.621-1.134.621a2.835 2.835 0 01-1.65-.518l-.515.829c.567.414 1.34.621 2.113.621 1.443 0 2.268-.673 2.268-1.605 0-.881-.67-1.347-1.7-1.503l-.516-.051c-.464-.052-.825-.156-.825-.467 0-.362.361-.57.928-.57.618 0 1.237.26 1.546.415l.464-.88zm28.756-.518c-.618 0-1.03.311-1.288.725v-.62h-1.083v4.973h1.083v-2.797c0-.83.36-1.295 1.03-1.295.207 0 .464.051.67.103l.31-1.036c-.207-.052-.516-.052-.722-.052zm-13.811 2.59c0 1.503 1.03 2.59 2.628 2.59.722 0 1.237-.155 1.752-.57l-.515-.88c-.412.31-.825.466-1.288.466-.877 0-1.495-.621-1.495-1.606 0-.932.618-1.554 1.495-1.605.463 0 .876.155 1.288.466l.515-.88c-.515-.415-1.03-.57-1.752-.57-1.597 0-2.628 1.087-2.628 2.59zm9.998 0V42.4h-1.083v.621c-.36-.466-.876-.725-1.546-.725-1.391 0-2.473 1.088-2.473 2.59 0 1.503 1.082 2.59 2.473 2.59.722 0 1.237-.258 1.546-.725v.622h1.083v-2.487zm-3.969 0c0-.88.567-1.605 1.495-1.605.876 0 1.494.673 1.494 1.605 0 .881-.618 1.606-1.494 1.606-.928-.051-1.495-.725-1.495-1.606zm-12.935-2.59c-1.443 0-2.473 1.036-2.473 2.59 0 1.555 1.03 2.59 2.525 2.59.721 0 1.443-.207 2.01-.673l-.516-.777c-.412.31-.927.518-1.443.518-.67 0-1.34-.31-1.494-1.191h3.659v-.415c.051-1.606-.876-2.642-2.268-2.642zm0 .933c.67 0 1.134.414 1.237 1.191h-2.577c.103-.673.567-1.191 1.34-1.191zm26.85 1.657V40.43h-1.083v2.59c-.36-.466-.876-.725-1.546-.725-1.391 0-2.473 1.088-2.473 2.59 0 1.503 1.082 2.59 2.473 2.59.722 0 1.237-.258 1.546-.725v.622h1.083v-2.487zm-3.968 0c0-.88.566-1.605 1.494-1.605.876 0 1.495.673 1.495 1.605 0 .881-.619 1.606-1.495 1.606-.928-.051-1.494-.725-1.494-1.606zm-36.178 0V42.4h-1.082v.621c-.36-.466-.876-.725-1.546-.725-1.391 0-2.474 1.088-2.474 2.59 0 1.503 1.083 2.59 2.474 2.59.722 0 1.237-.258 1.546-.725v.622h1.082v-2.487zm-4.02 0c0-.88.567-1.605 1.495-1.605.876 0 1.495.673 1.495 1.605 0 .881-.619 1.606-1.495 1.606-.928-.051-1.494-.725-1.494-1.606z" fill="#fff"/><path d="M38.135 4.635H21.902v29.32h16.233V4.635z" fill="#FF5F00"/><path d="M22.933 19.295c0-5.957 2.783-11.241 7.06-14.66A18.378 18.378 0 0018.553.646C8.296.646 0 8.986 0 19.296c0 10.308 8.297 18.648 18.552 18.648 4.33 0 8.297-1.502 11.441-3.989-4.277-3.367-7.06-8.703-7.06-14.66z" fill="#EB001B"/><path d="M60.038 19.295c0 10.309-8.297 18.649-18.553 18.649a18.378 18.378 0 01-11.44-3.989c4.328-3.419 7.06-8.703 7.06-14.66 0-5.957-2.783-11.241-7.06-14.66A18.378 18.378 0 0141.485.646c10.255 0 18.553 8.392 18.553 18.65z" fill="#F79E1B"/></svg>