<svg width="178" height="63" fill="none" xmlns="http://www.w3.org/2000/svg"><path d="M56.676 37.784l-6.298-6.297-6.297-6.297 6.297-6.298-6.297-6.297-6.297-6.298L31.486 0l-6.297 6.297-6.297 6.298-6.297 6.297-6.298 6.298L0 31.487l6.297 6.297L0 44.081l6.297 6.3 6.298 6.296 6.297 6.298 6.297-6.298 6.297 6.298 6.298-6.298 6.297 6.298 6.297-6.298 6.298-6.296 6.297-6.3-6.297-6.297zM44.082 50.38l-6.297-6.3-6.298 6.3-6.297-6.3-6.297 6.3-6.297-6.3 6.297-6.297-6.297-6.297 6.297-6.297 6.297 6.297 6.297-6.297-6.297-6.298 6.297-6.297 6.298 6.297-6.298 6.298 6.298 6.297-6.298 6.297 6.298 6.297 6.297-6.297 6.297 6.297-6.297 6.3z" fill="#E22830"/><path d="M76.865 14.461c4.518.001 4.516 6.126-.002 6.14l-4.155-.003.002-9.44h6.785v2.16l-4.371-.002v1.146h1.741zm-1.741 2.131v1.85h1.727c1.335 0 1.322-1.848 0-1.849h-1.727zm12.911-3.274h-3.494v1.335h3.211l-.001 2.145h-3.21l-.001 1.658 3.615.001c0 .701 0 1.43-.002 2.145h-6.016l.003-9.444 5.896.001-.001 2.16zm3.438 7.286l-2.36-.001v-.35l4.252-9.212h1.039l4.261 9.213v.352l-2.362-.002-2.427-5.53-2.403 5.53zm7.922-4.706c.001-6.529 9.687-6.527 9.685.003-.002 6.542-9.687 6.54-9.685-.003zm7.217.003c0-3.4-4.734-3.402-4.734-.002-.003 3.426 4.732 3.427 4.734.002zm4.358 4.707l.002-9.442 4.153.001c4.519.014 4.518 7.029-.002 7.028h-1.739v2.414l-2.414-.001zm4.141-7.282c-.566-.014-1.172 0-1.725 0-.002.768-.002 1.929-.002 2.697l1.727.001c1.322-.001 1.404-2.684 0-2.698zm5.867 7.03l1.485-3.049-3.18-5.774v-.365l2.696.001 1.78 3.481h.068l1.62-3.48 2.617.001v.364l-4.48 9.077h-2.606v-.256zm12.738-9.292c1.956 0 4.073 1.066 4.437 3.59h-2.373c-.337-.959-1.052-1.39-2.063-1.39-1.417 0-2.349 1.064-2.349 2.628 0 1.39.918 2.604 2.347 2.618 1.026 0 1.848-.512 2.106-1.523h2.373c-.353 2.671-2.471 3.723-4.479 3.722-2.401.013-4.829-1.606-4.842-4.817.014-3.21 2.443-4.828 4.843-4.828zm10.672.003c1.956.001 4.075 1.066 4.437 3.589h-2.373c-.337-.958-1.052-1.39-2.063-1.39-1.417-.001-2.349 1.064-2.349 2.628 0 1.391.918 2.604 2.347 2.618 1.024.001 1.848-.512 2.104-1.523l2.375.001c-.353 2.669-2.471 3.723-4.479 3.722-2.402.013-4.829-1.608-4.842-4.817.012-3.211 2.443-4.829 4.843-4.828zm6.406 9.553l.003-9.442h2.455l-.001 3.574h.176c2.415.001 2.294-1.807 2.294-3.574l2.481.001c-.001 1.928.054 3.71-1.822 4.91l2.563 4.155v.377h-2.686l-2.076-3.656c-.322.053-.621.053-.93.053v3.602h-2.457zm15.474-1.184h-3.723l-.554 1.186h-2.359v-.35l4.251-9.214h1.039l4.261 9.215v.35h-2.361l-.554-1.187zm-1.873-4.546l-1.067 2.481 2.158.001-1.091-2.482zm7.299 2.39c-2.388-1.62-1.713-6.085 1.996-6.097l4.143.001c0 3.157-.002 6.3-.003 9.442h-2.415l.002-2.779h-1.256l-1.618 2.778h-2.698v-.35l1.849-2.996zm3.723-1.605v-2.333c-.566 0-1.161-.013-1.728 0-1.376.013-1.31 2.332-.002 2.332l1.73.001zM77.106 35.361c-2.441-.082-4.452-1.04-4.45-3.98 0-2.927 1.997-3.87 4.439-3.951v-.795h2.32v.796c2.44.081 4.437 1.026 4.436 3.954 0 2.939-2.01 3.896-4.452 3.977v.797h-2.293v-.798zm.027-2.226l.002-3.493c-1.04.04-2.011.391-2.011 1.739s1.024 1.7 2.009 1.754zm2.242-3.493l-.002 3.495c.985-.055 2.01-.405 2.011-1.754-.001-1.349-.971-1.7-2.009-1.741zm12.263-.807h-3.493l-.002 1.335h3.211v2.146l-3.211-.001v1.66h3.614v2.146c-2.214-.002-3.831-.002-6.017-.002l.003-9.443 5.895.002v2.157zm3.088 8.352h-1.997l.001-3.157h.957l3.24-7.473 1.038.001 3.344 7.473.983.002v3.155h-1.981V36.15l-5.585-.002v1.039zm1.402-3.183l2.672.001-1.362-3.414-1.31 3.413zm13.343-5.163l-3.494-.002v1.336l3.211.001v2.146l-3.211-.002v1.661h3.616v2.145l-6.018-.001.003-9.443 5.895.002c-.002.7-.002 1.429-.002 2.157zm2.267 7.284l.004-9.442h4.153c4.52.016 4.518 7.03-.001 7.03h-1.74l-.001 2.414c-.81-.002-1.618-.002-2.415-.002zm4.143-7.282c-.567-.015-1.175 0-1.728 0v2.696h1.726c1.323.002 1.405-2.683.002-2.696zm10.171 6.099h-3.723l-.554 1.188-2.361-.002v-.35l4.252-9.213h1.038l4.261 9.215v.351h-2.36l-.553-1.189zm-1.875-4.546l-1.065 2.481h2.158l-1.093-2.48zm6.1-3.708l2.468.001-.001 7.218h2.74l.001-7.218 2.469.001-.002 7.351.957.001V37.2l-1.984-.002V36.13h-6.65l.002-9.442zm11.047 9.46l-.863-.002.002-9.455h2.47v4.627l4.775-4.666h.877l-.003 9.483-2.495-.002v-4.639l-4.763 4.654zm10.659-3.357c-2.387-1.619-1.711-6.084 1.999-6.096h4.14v9.442h-2.415v-2.78h-1.254l-1.622 2.778h-2.696v-.35l1.848-2.994zm3.724-1.604v-2.335c-.566 0-1.16-.013-1.727 0-1.376.014-1.308 2.333 0 2.335h1.727zM72.656 51.754l.001-9.442h2.457l-.002 3.576h.176c2.414 0 2.294-1.809 2.294-3.575h2.482c-.001 1.93.053 3.71-1.822 4.91l2.561 4.156v.376h-2.684l-2.076-3.656c-.324.054-.62.054-.932.052l-.001 3.604-2.454-.001zm10.481.016h-.862l.003-9.457h2.468l-.002 4.628 4.777-4.667.877.002-.003 9.481h-2.496l.002-4.64-4.764 4.653zm13.897-6.148c4.521.002 4.518 6.126-.001 6.138h-4.154l.003-9.442 6.786.001v2.16l-4.373-.002v1.146h1.739zm-1.74 2.131v1.848c.553.002 1.16.002 1.727.002 1.335 0 1.32-1.849 0-1.85h-1.727zm12.913-3.273c-1.404 0-2.104 0-3.495-.002v1.336h3.211v2.146l-3.211-.002-.001 1.66h3.615v2.145l-6.018-.002.003-9.442 5.896.003v2.157zm2.266 7.284v-9.443l4.155.002c4.519.013 4.518 7.028 0 7.026h-1.741v2.415h-2.414zm4.141-7.283c-.566-.015-1.173 0-1.727 0v2.697h1.727c1.322 0 1.402-2.684 0-2.697zm9.567-2.264c1.954 0 4.071 1.065 4.436 3.589-.822 0-1.551 0-2.374-.002-.337-.957-1.05-1.39-2.063-1.39-1.417 0-2.347 1.065-2.347 2.63 0 1.391.916 2.604 2.345 2.619 1.025 0 1.85-.513 2.104-1.524h2.376c-.352 2.672-2.47 3.722-4.48 3.722-2.401.013-4.829-1.606-4.842-4.816.014-3.212 2.443-4.828 4.845-4.828zm14.256 9.553h-2.47l.003-7.217h-2.914l-.001 7.217c-.821-.002-1.661-.002-2.468-.002l.003-9.442c.808.002 1.645.002 7.85.003l-.003 9.441zm1.905-4.708c.002-6.527 9.687-6.525 9.686.003-.003 6.544-9.687 6.54-9.686-.003zm7.218.003c0-3.398-4.735-3.399-4.735 0a2.375 2.375 0 004.735 0zm4.357 4.71c0-3.144.003-6.287.003-9.442l4.154.001c4.519.013 4.517 7.028-.002 7.026h-1.741v2.415h-2.414zm4.142-7.285c-.566-.012-1.173 0-1.725 0 0 .771-.004 1.931-.004 2.698l1.729.002c1.322 0 1.402-2.684 0-2.7zm4.358.002v-2.158l7.016.002c-.002.715-.002 1.431-.002 2.158h-2.306l-.002 7.284h-2.388l.002-7.284-2.32-.002zm13.476 6.1h-3.725l-.551 1.187-2.361-.002v-.35l4.25-9.213h1.039l4.261 9.215v.351h-2.359l-.554-1.188zm-1.873-4.545l-1.067 2.481h2.159l-1.092-2.48z" fill="#fff"/></svg>