<svg width="43" height="334" fill="none" xmlns="http://www.w3.org/2000/svg"><g filter="url(#filter0_d_1_670)" fill-rule="evenodd" clip-rule="evenodd" fill="#2F80ED"><path d="M17.278 323.793h-5.423v-25.782H4v26.019l7.602 5.97h5.524l8.009-6.327v-19.456h5.421v25.782h7.858v-26.02l-7.585-5.968h-5.613l-7.938 6.286v19.496zm1.033-19.021l7.274-5.761h4.878l6.918 5.444v24.544h-5.793v-25.782h-7.486v19.981L16.758 329h-4.79l-6.936-5.446v-24.543h5.79v25.782h7.489v-20.021zm5.792-40.306h13.279v-4.206h-11.88l-4.32 3.391-4.319-3.391H5.033v4.207h13.278v21.573H5.033v4.209h32.34l-.033-4.209H24.103v-21.574zm14.261 20.574l.05 6.209H4.001v-6.209h13.278v-19.573H4v-6.207h13.228l3.952 3.104 3.955-3.104h13.278v6.206H25.136v19.574h13.228zM5.033 251.497h32.349v-4.206H5.033v4.206zm33.381 1v-6.206H4.001v6.206h34.413zm-7.857-19.175H4v6.207h26.81l7.603-5.97v-26.018h-7.857v25.781zm1.032-24.781v25.781H5.033v4.207h25.413l6.936-5.447v-24.541h-5.793zm-1.032-13.931H4v6.206h26.81l7.603-5.968v-26.02h-7.857v25.782zm1.032-24.782v25.782H5.033v4.206h25.413l6.936-5.444v-24.544h-5.793zm-6.454-33.503h5.421v19.574h-18.7v-25.781H4v26.02l7.602 5.968h19.209l7.602-5.968v-20.053l-7.585-5.967h-13.55v19.574h7.857v-13.367zm-1.032 12.367v-13.367h7.486v21.574H10.823v-25.781h-5.79v24.543l6.936 5.445h18.477l6.936-5.445v-19.1l-6.92-5.443H18.31v17.574h5.793zm0-52.119h13.279v-4.208h-11.88l-4.32 3.391-4.319-3.39h-4.894l-6.936 5.443v24.544h32.34l-.033-4.207H24.103V96.573zm14.261 20.573l.05 6.207H4.001V97.332l7.602-5.967h5.626l3.952 3.104 3.955-3.104h13.278v6.208H25.136v19.573h13.228zM10.823 96.573h7.488v21.573h-7.488V96.573zm1.032 20.573V97.573h5.424v19.573h-5.424zm-1.032-59.323h20.766v21.573H10.823V57.823zm26.559 1.236l-6.936-5.444H11.969L5.033 59.06v19.098l6.936 5.447h18.477l6.936-5.447V59.06zm1.032 19.575V58.582l-7.602-5.967H11.603l-7.602 5.967v20.052l7.602 5.97h19.209l7.602-5.97zm-26.559-.238V58.823h18.701v19.573h-18.7zm26.559-57.052V9.965L30.812 4H4v6.207h26.556v11.616H4v6.206h26.556v11.619H4v6.206h26.81l7.603-5.97V28.507l-4.563-3.58 4.563-3.582zm-1.032 7.639l-5.17-4.058 5.17-4.057V10.442L30.446 5H5.033v4.207H31.59v13.616H5.033v4.206H31.59v13.619H5.033v4.206h25.413l6.936-5.446V28.983z"/></g><defs><filter id="filter0_d_1_670" x="0" y="0" width="42.414" height="334" filterUnits="userSpaceOnUse" color-interpolation-filters="sRGB"><feFlood flood-opacity="0" result="BackgroundImageFix"/><feColorMatrix in="SourceAlpha" values="0 0 0 0 0 0 0 0 0 0 0 0 0 0 0 0 0 0 127 0" result="hardAlpha"/><feOffset/><feGaussianBlur stdDeviation="2"/><feComposite in2="hardAlpha" operator="out"/><feColorMatrix values="0 0 0 0 0.184314 0 0 0 0 0.501961 0 0 0 0 0.929412 0 0 0 1 0"/><feBlend in2="BackgroundImageFix" result="effect1_dropShadow_1_670"/><feBlend in="SourceGraphic" in2="effect1_dropShadow_1_670" result="shape"/></filter></defs></svg>