<svg width="52" height="46" fill="none" xmlns="http://www.w3.org/2000/svg"><path fill-rule="evenodd" clip-rule="evenodd" d="M1.548 1.608A5.301 5.301 0 015.344 0h37.683a5.3 5.3 0 013.795 1.608 5.478 5.478 0 011.549 3.824v8.622h1.267a2.164 2.164 0 012.158 2.165V29.78a2.162 2.162 0 01-2.158 2.165h-1.267v8.622a5.478 5.478 0 01-1.549 3.824A5.3 5.3 0 0143.027 46H5.344a5.301 5.301 0 01-3.796-1.608A5.478 5.478 0 010 40.568V5.432C0 4.007.552 2.63 1.548 1.608zm42.986 16.283V28.11H32.75a4.847 4.847 0 01-3.471-1.48A5.201 5.201 0 0127.817 23c0-1.37.53-2.675 1.462-3.63a4.847 4.847 0 013.47-1.479h11.785zm0-3.837H32.75a8.684 8.684 0 00-6.219 2.638A9.038 9.038 0 0023.98 23c0 2.357.912 4.627 2.551 6.308a8.684 8.684 0 006.219 2.638h11.784v8.622c0 .439-.17.85-.459 1.145-.286.294-.665.45-1.048.45H5.344c-.384 0-.762-.156-1.049-.45a1.642 1.642 0 01-.458-1.145V5.432c0-.439.17-.85.458-1.145.287-.294.665-.45 1.05-.45h37.682c.383 0 .762.156 1.048.45.289.295.459.706.459 1.145v8.622z" fill="url(#paint0_linear_1_816)"/><defs><linearGradient id="paint0_linear_1_816" x1="25.898" y1="1.918" x2="25.898" y2="44.082" gradientUnits="userSpaceOnUse"><stop stop-color="#E1338C"/><stop offset="1" stop-color="#F23F66"/></linearGradient></defs></svg>