<svg width="33" height="46" fill="none" xmlns="http://www.w3.org/2000/svg"><path fill-rule="evenodd" clip-rule="evenodd" d="M4.952 11.5c0-4.066 3.686-7.667 8.625-7.667 4.94 0 8.625 3.6 8.625 7.667a1.917 1.917 0 003.834 0c0-6.52-5.754-11.5-12.459-11.5C6.873 0 1.12 4.98 1.12 11.5a1.917 1.917 0 003.833 0zm8.434-1.917a4.983 4.983 0 00-4.984 4.984v11.635c-2.013-1.753-5.136-1.665-7.037.373a5.076 5.076 0 00-.605 6.134l5.419 8.752A9.583 9.583 0 0014.327 46h8.208a9.583 9.583 0 009.462-8.065l.895-5.578a7.667 7.667 0 00-5.252-8.523l-9.271-2.94v-6.327a4.983 4.983 0 00-4.983-4.984zm-1.15 4.984a1.15 1.15 0 112.3 0v6.328a3.833 3.833 0 002.674 3.654l9.271 2.94a3.833 3.833 0 012.627 4.26l-.896 5.579a5.75 5.75 0 01-5.677 4.839h-8.208a5.75 5.75 0 01-4.89-2.724L4.02 30.692a1.242 1.242 0 012.04-1.414l2.743 3.552a1.917 1.917 0 003.434-1.172V14.567z" fill="url(#paint0_linear_1_547)"/><defs><linearGradient id="paint0_linear_1_547" x1="16.495" y1="0" x2="16.495" y2="46" gradientUnits="userSpaceOnUse"><stop stop-color="#E1338C"/><stop offset="1" stop-color="#F23F66"/></linearGradient></defs></svg>