<svg width="42" height="46" fill="none" xmlns="http://www.w3.org/2000/svg"><path fill-rule="evenodd" clip-rule="evenodd" d="M36.684 11.798L21 18.938l-15.684-7.14L21 3.833l15.684 7.965zm1.498 3.528l-15.273 6.951v18.318H19.09V22.277L3.819 15.326V33.44l15.39 7.816a1.922 1.922 0 01-.117-.663h3.819c0 .233-.042.456-.118.663l15.39-7.816V15.326zM2.095 9.138A3.835 3.835 0 000 12.56v20.882c0 1.445.81 2.768 2.095 3.42l17.182 8.726c1.083.55 2.363.55 3.446 0l17.182-8.726A3.835 3.835 0 0042 33.441V12.559c0-1.445-.81-2.768-2.095-3.42L22.723.412a3.805 3.805 0 00-3.446 0L2.095 9.138z" fill="url(#paint0_linear_1_554)"/><defs><linearGradient id="paint0_linear_1_554" x1="21" y1="0" x2="21" y2="46" gradientUnits="userSpaceOnUse"><stop stop-color="#E1338C"/><stop offset="1" stop-color="#F23F66"/></linearGradient></defs></svg>