<svg width="78" height="25" fill="none" xmlns="http://www.w3.org/2000/svg"><path d="M50.804 0c-5.538 0-10.487 2.84-10.487 8.086 0 6.017 8.777 6.432 8.777 9.455 0 1.273-1.474 2.412-3.992 2.412-3.574 0-6.245-1.592-6.245-1.592l-1.143 5.294S40.79 25 44.876 25c6.055 0 10.82-2.98 10.82-8.315 0-6.358-8.814-6.761-8.814-9.567 0-.997 1.21-2.09 3.721-2.09 2.833 0 5.145 1.159 5.145 1.159l1.118-5.114S54.351 0 50.804 0zM.134.386L0 1.158s2.33.422 4.428 1.263c2.703.965 2.895 1.527 3.35 3.271l4.959 18.91h6.647L29.624.386h-6.631l-6.58 16.465-2.686-13.957c-.246-1.597-1.493-2.508-3.02-2.508H.134zm32.158 0l-5.203 24.216h6.324L38.598.386h-6.306zm35.272 0c-1.525 0-2.333.808-2.926 2.219l-9.265 21.997h6.632l1.283-3.666h8.08l.78 3.666H78L72.895.386h-5.33zm.863 6.542l1.966 9.087h-5.267l3.3-9.087z" fill="#fff"/></svg>