<svg width="26" height="26" fill="none" xmlns="http://www.w3.org/2000/svg"><path d="M13 1.733c-6.222 0-11.267 5.042-11.267 11.26S6.778 24.253 13 24.253c6.222 0 11.267-5.042 11.267-11.26 0-6.219-5.045-11.26-11.267-11.26zm6.455 16.198l-1.976.027s-.424.084-.983-.299c-.739-.507-1.436-1.825-1.979-1.653-.55.175-.533 1.36-.533 1.36s.004.254-.122.389c-.136.147-.403.176-.403.176h-.885s-1.95.117-3.669-1.67c-1.874-1.95-3.528-5.82-3.528-5.82s-.096-.253.008-.376c.116-.138.433-.146.433-.146l2.114-.014s.2.033.342.138a.661.661 0 01.183.247s.342.864.795 1.645c.882 1.525 1.294 1.858 1.594 1.695.437-.238.306-2.156.306-2.156s.008-.696-.22-1.006c-.177-.24-.51-.31-.657-.33-.119-.015.077-.292.33-.415.38-.187 1.052-.197 1.845-.189.619.006.797.045 1.039.103.728.176.48.855.48 2.484 0 .522-.093 1.255.284 1.499.162.104.558.016 1.548-1.666.47-.796.822-1.733.822-1.733s.077-.167.196-.238c.122-.073.287-.051.287-.051l2.225-.014s.668-.08.776.222c.114.317-.25 1.055-1.158 2.266-1.492 1.987-1.658 1.802-.42 2.95 1.184 1.098 1.429 1.633 1.47 1.7.49.811-.544.875-.544.875z" fill="#7774FE"/></svg>