<svg width="52" height="52" viewBox="0 0 52 52" fill="none" xmlns="http://www.w3.org/2000/svg">
<circle cx="26" cy="26" r="26" fill="url(#paint0_linear_1_835)"/>
<path d="M31.75 34H20.2773V32.043L25.9609 25.8438C26.7812 24.9297 27.3633 24.168 27.707 23.5586C28.0586 22.9414 28.2344 22.3242 28.2344 21.707C28.2344 20.8945 28.0039 20.2383 27.543 19.7383C27.0898 19.2383 26.4766 18.9883 25.7031 18.9883C24.7812 18.9883 24.0664 19.2695 23.5586 19.832C23.0508 20.3945 22.7969 21.1641 22.7969 22.1406H19.9492C19.9492 21.1016 20.1836 20.168 20.6523 19.3398C21.1289 18.5039 21.8047 17.8555 22.6797 17.3945C23.5625 16.9336 24.5781 16.7031 25.7266 16.7031C27.3828 16.7031 28.6875 17.1211 29.6406 17.957C30.6016 18.7852 31.082 19.9336 31.082 21.4023C31.082 22.2539 30.8398 23.1484 30.3555 24.0859C29.8789 25.0156 29.0938 26.0742 28 27.2617L23.8281 31.7266H31.75V34Z" fill="white"/>
<defs>
<linearGradient id="paint0_linear_1_835" x1="26" y1="0" x2="26" y2="52" gradientUnits="userSpaceOnUse">
<stop stop-color="#651EFF"/>
<stop offset="1" stop-color="#4485FA"/>
</linearGradient>
</defs>
</svg>
