<svg width="52" height="52" viewBox="0 0 52 52" fill="none" xmlns="http://www.w3.org/2000/svg">
<circle cx="26" cy="26" r="26" fill="url(#paint0_linear_1_839)"/>
<path d="M23.5703 24.168H25.3047C26.1797 24.1602 26.8711 23.9336 27.3789 23.4883C27.8945 23.043 28.1523 22.3984 28.1523 21.5547C28.1523 20.7422 27.9375 20.1133 27.5078 19.668C27.0859 19.2148 26.4375 18.9883 25.5625 18.9883C24.7969 18.9883 24.168 19.2109 23.6758 19.6562C23.1836 20.0938 22.9375 20.668 22.9375 21.3789H20.0898C20.0898 20.5039 20.3203 19.707 20.7812 18.9883C21.25 18.2695 21.8984 17.7109 22.7266 17.3125C23.5625 16.9062 24.4961 16.7031 25.5273 16.7031C27.2305 16.7031 28.5664 17.1328 29.5352 17.9922C30.5117 18.8438 31 20.0312 31 21.5547C31 22.3203 30.7539 23.043 30.2617 23.7227C29.7773 24.3945 29.1484 24.9023 28.375 25.2461C29.3125 25.5664 30.0234 26.0703 30.5078 26.7578C31 27.4453 31.2461 28.2656 31.2461 29.2188C31.2461 30.75 30.7188 31.9688 29.6641 32.875C28.6172 33.7812 27.2383 34.2344 25.5273 34.2344C23.8867 34.2344 22.543 33.7969 21.4961 32.9219C20.4492 32.0469 19.9258 30.8828 19.9258 29.4297H22.7734C22.7734 30.1797 23.0234 30.7891 23.5234 31.2578C24.0312 31.7266 24.7109 31.9609 25.5625 31.9609C26.4453 31.9609 27.1406 31.7266 27.6484 31.2578C28.1562 30.7891 28.4102 30.1094 28.4102 29.2188C28.4102 28.3203 28.1445 27.6289 27.6133 27.1445C27.082 26.6602 26.293 26.418 25.2461 26.418H23.5703V24.168Z" fill="white"/>
<defs>
<linearGradient id="paint0_linear_1_839" x1="26" y1="0" x2="26" y2="52" gradientUnits="userSpaceOnUse">
<stop stop-color="#651EFF"/>
<stop offset="1" stop-color="#4485FA"/>
</linearGradient>
</defs>
</svg>
