<svg width="26" height="26" viewBox="0 0 26 26" fill="none" xmlns="http://www.w3.org/2000/svg">
<path d="M12.9995 15.2554C14.2426 15.2554 15.2559 14.2438 15.2559 12.9999C15.2559 12.5089 15.0953 12.0555 14.8289 11.6852C14.4186 11.117 13.7524 10.7444 13 10.7444C12.2471 10.7444 11.5813 11.1165 11.1706 11.6847C10.9038 12.055 10.7445 12.5084 10.744 12.9994C10.7436 14.2434 11.756 15.2554 12.9995 15.2554Z" fill="#7774FE"/>
<path d="M17.9249 10.2409V8.35022V8.06885L17.6417 8.06975L15.752 8.07565L15.7597 10.2481L17.9249 10.2409Z" fill="#7774FE"/>
<path d="M12.9999 1.7334C6.78753 1.7334 1.73328 6.78765 1.73328 13.0001C1.73328 19.2125 6.78753 24.2667 12.9999 24.2667C19.2124 24.2667 24.2666 19.2125 24.2666 13.0001C24.2666 6.78765 19.2124 1.7334 12.9999 1.7334ZM19.4075 11.6853V16.9316C19.4075 18.298 18.2965 19.4085 16.931 19.4085H9.06891C7.70289 19.4085 6.59238 18.298 6.59238 16.9316V11.6853V9.06948C6.59238 7.70347 7.70289 6.59296 9.06891 6.59296H16.9305C18.2965 6.59296 19.4075 7.70347 19.4075 9.06948V11.6853Z" fill="#7774FE"/>
<path d="M16.5044 13C16.5044 14.932 14.9328 16.5049 13 16.5049C11.0672 16.5049 9.49555 14.932 9.49555 13C9.49555 12.5353 9.58814 12.091 9.75333 11.6853H7.84045V16.9315C7.84045 17.6095 8.39094 18.1587 9.0685 18.1587H16.9301C17.6077 18.1587 18.1582 17.6095 18.1582 16.9315V11.6853H16.2448C16.4105 12.091 16.5044 12.5353 16.5044 13Z" fill="#7774FE"/>
</svg>
