<svg width="26" height="26" viewBox="0 0 26 26" fill="none" xmlns="http://www.w3.org/2000/svg">
<path d="M10.8815 17.8147L4.81482 12.7111V4.81477C4.81482 4.23699 5.29627 3.85181 5.77778 3.85181H20.2222C20.8 3.85181 21.1852 4.23699 21.1852 4.81477V12.7111L15.1185 17.8147H10.8815Z" fill="#7774FE"/>
<path d="M13 0L16.274 2.88889H9.7259L13 0Z" fill="#7774FE"/>
<path d="M3.85185 8.08887V13.3852L7.51111 16.4666L9.62963 18.2963L3.94812 23.2074L4.71854 23.9778L10.4963 19.0667H15.5037L21.2815 23.9778L22.0519 23.2074L16.3704 18.2963L18.4889 16.4666L22.1481 13.3852V8.08887L25.037 10.5926V24.0741C25.037 25.1333 24.1704 26 23.1111 26H2.88889C1.82965 26 0.962961 25.1333 0.962961 24.0741V10.5926L3.85185 8.08887Z" fill="#7774FE"/>
</svg>
