<svg width="61" height="48" viewBox="0 0 61 48" fill="none" xmlns="http://www.w3.org/2000/svg">
<path d="M10.9253 47.3719V44.2638C10.9253 43.0723 10.2038 42.2953 8.96699 42.2953C8.34857 42.2953 7.67863 42.5025 7.21482 43.1759C6.85408 42.6061 6.33873 42.2953 5.56571 42.2953C5.05037 42.2953 4.53503 42.4507 4.12275 43.0205V42.3989H3.04053V47.3719H4.12275V44.6264C4.12275 43.7458 4.58656 43.3313 5.30804 43.3313C6.02952 43.3313 6.39027 43.7976 6.39027 44.6264V47.3719H7.47249V44.6264C7.47249 43.7458 7.98783 43.3313 8.65778 43.3313C9.37926 43.3313 9.74 43.7976 9.74 44.6264V47.3719H10.9253ZM26.9525 42.3989H25.2003V40.8966H24.1181V42.3989H23.139V43.3831H24.1181V45.6624C24.1181 46.8021 24.5819 47.4755 25.8187 47.4755C26.2825 47.4755 26.7979 47.3201 27.1586 47.1129L26.8494 46.1805C26.5402 46.3877 26.1795 46.4395 25.9218 46.4395C25.4065 46.4395 25.2003 46.1287 25.2003 45.6107V43.3831H26.9525V42.3989ZM36.1256 42.2953C35.5072 42.2953 35.0949 42.6061 34.8373 43.0205V42.3989H33.7551V47.3719H34.8373V44.5746C34.8373 43.7458 35.198 43.2796 35.868 43.2796C36.0741 43.2796 36.3318 43.3313 36.5379 43.3831L36.8471 42.3471C36.641 42.2953 36.3318 42.2953 36.1256 42.2953ZM22.2629 42.8133C21.7475 42.4507 21.026 42.2953 20.253 42.2953C19.0162 42.2953 18.1916 42.9169 18.1916 43.9012C18.1916 44.73 18.8101 45.1962 19.8923 45.3516L20.4076 45.4034C20.9745 45.507 21.2837 45.6624 21.2837 45.9215C21.2837 46.2841 20.8714 46.5431 20.15 46.5431C19.4285 46.5431 18.8616 46.2841 18.5009 46.0251L17.9855 46.8539C18.5524 47.2683 19.3254 47.4755 20.0984 47.4755C21.5414 47.4755 22.3659 46.8021 22.3659 45.8697C22.3659 44.989 21.696 44.5228 20.6653 44.3674L20.15 44.3156C19.6861 44.2638 19.3254 44.1602 19.3254 43.8494C19.3254 43.4867 19.6861 43.2796 20.253 43.2796C20.8714 43.2796 21.4899 43.5386 21.7991 43.694L22.2629 42.8133ZM51.0191 42.2953C50.4007 42.2953 49.9884 42.6061 49.7307 43.0205V42.3989H48.6485V47.3719H49.7307V44.5746C49.7307 43.7458 50.0915 43.2796 50.7614 43.2796C50.9676 43.2796 51.2252 43.3313 51.4314 43.3831L51.7406 42.3471C51.5344 42.2953 51.2252 42.2953 51.0191 42.2953ZM37.2079 44.8854C37.2079 46.3877 38.2385 47.4755 39.8361 47.4755C40.5576 47.4755 41.0729 47.3201 41.5883 46.9057L41.0729 46.0251C40.6607 46.3359 40.2484 46.4913 39.7846 46.4913C38.9085 46.4913 38.2901 45.8697 38.2901 44.8854C38.2901 43.953 38.9085 43.3314 39.7846 43.2796C40.2484 43.2796 40.6607 43.435 41.0729 43.7458L41.5883 42.8651C41.0729 42.4507 40.5576 42.2953 39.8361 42.2953C38.2385 42.2953 37.2079 43.3831 37.2079 44.8854ZM47.2055 44.8854V42.3989H46.1233V43.0205C45.7626 42.5543 45.2472 42.2953 44.5773 42.2953C43.1859 42.2953 42.1036 43.3831 42.1036 44.8854C42.1036 46.3877 43.1859 47.4755 44.5773 47.4755C45.2988 47.4755 45.8141 47.2165 46.1233 46.7503V47.3719H47.2055V44.8854ZM43.2374 44.8854C43.2374 44.0048 43.8043 43.2796 44.7319 43.2796C45.608 43.2796 46.2264 43.953 46.2264 44.8854C46.2264 45.7661 45.608 46.4913 44.7319 46.4913C43.8043 46.4395 43.2374 45.7661 43.2374 44.8854ZM30.3022 42.2953C28.8593 42.2953 27.8286 43.3313 27.8286 44.8854C27.8286 46.4395 28.8593 47.4755 30.3538 47.4755C31.0753 47.4755 31.7967 47.2683 32.3636 46.8021L31.8483 46.0251C31.436 46.3359 30.9207 46.5431 30.4053 46.5431C29.7354 46.5431 29.0654 46.2323 28.9108 45.3516H32.5698C32.5698 45.1962 32.5698 45.0926 32.5698 44.9372C32.6213 43.3313 31.6937 42.2953 30.3022 42.2953ZM30.3022 43.2277C30.9722 43.2277 31.436 43.6422 31.5391 44.4192H28.9623C29.0654 43.7458 29.5292 43.2277 30.3022 43.2277ZM57.1517 44.8854V40.4304H56.0695V43.0205C55.7087 42.5543 55.1934 42.2953 54.5234 42.2953C53.132 42.2953 52.0498 43.3831 52.0498 44.8854C52.0498 46.3877 53.132 47.4755 54.5234 47.4755C55.2449 47.4755 55.7603 47.2165 56.0695 46.7503V47.3719H57.1517V44.8854ZM53.1835 44.8854C53.1835 44.0048 53.7504 43.2796 54.678 43.2796C55.5541 43.2796 56.1725 43.953 56.1725 44.8854C56.1725 45.7661 55.5541 46.4913 54.678 46.4913C53.7504 46.4395 53.1835 45.7661 53.1835 44.8854ZM17.0064 44.8854V42.3989H15.9241V43.0205C15.5634 42.5543 15.0481 42.2953 14.3781 42.2953C12.9867 42.2953 11.9044 43.3831 11.9044 44.8854C11.9044 46.3877 12.9867 47.4755 14.3781 47.4755C15.0996 47.4755 15.6149 47.2165 15.9241 46.7503V47.3719H17.0064V44.8854ZM12.9867 44.8854C12.9867 44.0048 13.5535 43.2796 14.4812 43.2796C15.3572 43.2796 15.9757 43.953 15.9757 44.8854C15.9757 45.7661 15.3572 46.4913 14.4812 46.4913C13.5535 46.4395 12.9867 45.7661 12.9867 44.8854Z" fill="white"/>
<path d="M38.1354 4.63501H21.9021V33.9552H38.1354V4.63501Z" fill="#FF5F00"/>
<path d="M22.9328 19.2951C22.9328 13.3378 25.7157 8.05399 29.993 4.63503C26.8494 2.14852 22.8813 0.64624 18.5524 0.64624C8.29705 0.64624 0 8.98642 0 19.2951C0 29.6038 8.29705 37.9439 18.5524 37.9439C22.8813 37.9439 26.8494 36.4417 29.993 33.9552C25.7157 30.588 22.9328 25.2524 22.9328 19.2951Z" fill="#EB001B"/>
<path d="M60.0376 19.2951C60.0376 29.6038 51.7405 37.9439 41.4852 37.9439C37.1563 37.9439 33.1882 36.4417 30.0446 33.9552C34.3734 30.5362 37.1048 25.2524 37.1048 19.2951C37.1048 13.3378 34.3219 8.05399 30.0446 4.63503C33.1882 2.14852 37.1563 0.64624 41.4852 0.64624C51.7405 0.64624 60.0376 9.03823 60.0376 19.2951Z" fill="#F79E1B"/>
</svg>
