<svg width="178" height="63" viewBox="0 0 178 63" fill="none" xmlns="http://www.w3.org/2000/svg">
<path d="M56.676 37.784L50.378 31.487L44.081 25.19L50.378 18.892L44.081 12.595L37.784 6.297L31.486 0L25.189 6.297L18.892 12.595L12.595 18.892L6.297 25.19L0 31.487L6.297 37.784L0 44.081L6.297 50.381L12.595 56.677L18.892 62.975L25.189 56.677L31.486 62.975L37.784 56.677L44.081 62.975L50.378 56.677L56.676 50.381L62.973 44.081L56.676 37.784ZM44.082 50.38L37.785 44.08L31.487 50.38L25.19 44.08L18.893 50.38L12.596 44.08L18.893 37.783L12.596 31.486L18.893 25.189L25.19 31.486L31.487 25.189L25.19 18.891L31.487 12.594L37.785 18.891L31.487 25.189L37.785 31.486L31.487 37.783L37.785 44.08L44.082 37.783L50.379 44.08L44.082 50.38Z" fill="#E22830"/>
<path d="M76.865 14.4611C81.383 14.4621 81.381 20.5871 76.863 20.6001L72.708 20.5981L72.71 11.1571H79.495V13.3171L75.124 13.3161V14.4621H76.865V14.4611ZM75.124 16.5921V18.4411C75.677 18.4411 76.282 18.4411 76.851 18.4421C78.186 18.4421 78.173 16.5941 76.851 16.5931L75.124 16.5921Z" fill="white"/>
<path d="M88.035 13.3181C86.633 13.3181 85.931 13.3181 84.541 13.3181V14.6531H87.752C87.752 15.3681 87.751 16.0841 87.751 16.7981L84.541 16.7971C84.541 17.3501 84.541 17.8901 84.54 18.4561C85.93 18.4561 86.738 18.4561 88.155 18.4571C88.155 19.1581 88.155 19.8871 88.153 20.6021C85.942 20.6011 84.324 20.6011 82.137 20.6011C82.139 17.4451 82.14 14.2881 82.14 11.1581C84.326 11.1581 85.823 11.1591 88.036 11.1591C88.035 11.8621 88.035 12.5901 88.035 13.3181Z" fill="white"/>
<path d="M91.473 20.604L89.113 20.603V20.253L93.365 11.041H94.404L98.665 20.254V20.606L96.303 20.604L93.876 15.074L91.473 20.604Z" fill="white"/>
<path d="M99.395 15.8981C99.396 9.36907 109.082 9.37107 109.08 15.9011C109.078 22.4431 99.393 22.4411 99.395 15.8981ZM106.612 15.9011C106.612 12.5011 101.878 12.4991 101.878 15.8991C101.875 19.3251 106.61 19.3261 106.612 15.9011Z" fill="white"/>
<path d="M110.97 20.608C110.97 17.465 110.972 14.322 110.972 11.166C112.333 11.167 113.736 11.167 115.125 11.167C119.644 11.181 119.643 18.196 115.123 18.195H113.384V20.609C112.574 20.609 111.765 20.609 110.97 20.608ZM115.111 13.326C114.545 13.312 113.939 13.326 113.386 13.326C113.384 14.094 113.384 15.255 113.384 16.023L115.111 16.024C116.433 16.023 116.515 13.34 115.111 13.326Z" fill="white"/>
<path d="M120.978 20.3561L122.463 17.3071L119.283 11.5331V11.1681L121.979 11.1691L123.759 14.6501H123.827L125.447 11.1701L128.064 11.1711V11.5351L123.584 20.6121H120.978V20.3561Z" fill="white"/>
<path d="M133.716 11.0641C135.672 11.0641 137.789 12.1301 138.153 14.6531C137.332 14.6531 136.603 14.6531 135.78 14.6531C135.443 13.6951 134.728 13.2631 133.717 13.2631C132.3 13.2631 131.368 14.3281 131.368 15.8921C131.368 17.2811 132.286 18.4961 133.715 18.5101C134.741 18.5101 135.563 17.9981 135.821 16.9871C136.63 16.9871 137.371 16.9871 138.194 16.9871C137.841 19.6581 135.723 20.7101 133.715 20.7091C131.314 20.7221 128.886 19.1031 128.873 15.8921C128.887 12.6821 131.316 11.0641 133.716 11.0641Z" fill="white"/>
<path d="M144.388 11.067C146.344 11.068 148.463 12.133 148.825 14.656C148.002 14.656 147.275 14.656 146.452 14.656C146.115 13.698 145.4 13.266 144.389 13.266C142.972 13.265 142.04 14.33 142.04 15.894C142.04 17.285 142.958 18.498 144.387 18.512C145.411 18.513 146.235 18 146.491 16.989C147.301 16.989 148.043 16.989 148.866 16.99C148.513 19.659 146.395 20.713 144.387 20.712C141.985 20.725 139.558 19.104 139.545 15.895C139.557 12.684 141.988 11.066 144.388 11.067Z" fill="white"/>
<path d="M150.794 20.6191L150.797 11.1781C151.606 11.1781 152.415 11.1781 153.252 11.1781L153.251 14.7521H153.427C155.842 14.7531 155.721 12.9451 155.721 11.1781C156.544 11.1781 157.367 11.1791 158.202 11.1791C158.201 13.1071 158.256 14.8891 156.38 16.0881L158.943 20.2441V20.6211L156.257 20.6201L154.181 16.9651C153.859 17.0181 153.56 17.0181 153.251 17.0181V20.6201C152.414 20.6201 151.603 20.6191 150.794 20.6191Z" fill="white"/>
<path d="M166.268 19.4361L162.545 19.4351L161.991 20.6221H159.632V20.2711L163.883 11.0581H164.922L169.183 20.2731V20.6231L166.822 20.6221L166.268 19.4361ZM164.395 14.8901L163.328 17.3711L165.486 17.3721L164.395 14.8901Z" fill="white"/>
<path d="M171.694 17.2791C169.306 15.6601 169.981 11.1951 173.69 11.1831C175.067 11.1831 176.469 11.1831 177.833 11.1841C177.833 14.3411 177.831 17.4831 177.83 20.6261C177.048 20.6261 176.226 20.6261 175.415 20.6261L175.417 17.8471H174.161L172.543 20.6251L169.845 20.6241V20.2741L171.694 17.2791ZM175.417 15.6751C175.417 14.9201 175.417 14.1101 175.417 13.3421C174.851 13.3421 174.256 13.3291 173.689 13.3411C172.313 13.3551 172.379 15.6741 173.687 15.6741L175.417 15.6751Z" fill="white"/>
<path d="M77.106 35.361C74.665 35.279 72.654 34.321 72.656 31.381C72.656 28.454 74.653 27.511 77.095 27.43V26.635H79.415V27.431C81.855 27.512 83.852 28.457 83.851 31.385C83.851 34.324 81.841 35.281 79.399 35.362V36.159H77.106V35.361ZM77.133 33.135L77.135 29.642C76.095 29.682 75.124 30.033 75.124 31.381C75.124 32.729 76.148 33.081 77.133 33.135ZM79.375 29.642L79.373 33.137C80.358 33.082 81.383 32.732 81.384 31.383C81.383 30.034 80.413 29.683 79.375 29.642Z" fill="white"/>
<path d="M91.638 28.835C90.234 28.835 89.534 28.835 88.145 28.835L88.143 30.17H91.354C91.354 30.887 91.354 31.601 91.354 32.316L88.143 32.315C88.143 32.869 88.143 33.408 88.143 33.975C89.532 33.975 90.341 33.975 91.757 33.975C91.757 34.677 91.757 35.404 91.757 36.121C89.543 36.119 87.926 36.119 85.74 36.119C85.741 32.962 85.742 29.805 85.743 26.676C87.928 26.677 89.425 26.678 91.638 26.678C91.638 27.379 91.638 28.108 91.638 28.835Z" fill="white"/>
<path d="M94.726 37.187H92.729L92.73 34.03H93.687L96.927 26.557L97.965 26.558L101.309 34.031L102.292 34.033V37.188H100.311V36.15L94.726 36.148V37.187ZM96.128 34.004L98.8 34.005L97.438 30.591L96.128 34.004Z" fill="white"/>
<path d="M109.471 28.841C108.069 28.84 107.368 28.84 105.977 28.839V30.175L109.188 30.176C109.188 30.892 109.188 31.606 109.188 32.322L105.977 32.32C105.977 32.874 105.977 33.414 105.977 33.981C107.367 33.981 108.176 33.981 109.593 33.981C109.593 34.682 109.593 35.41 109.593 36.126C107.381 36.125 105.76 36.125 103.575 36.125C103.576 32.969 103.578 29.811 103.578 26.682C105.765 26.683 107.26 26.684 109.473 26.684C109.471 27.384 109.471 28.113 109.471 28.841Z" fill="white"/>
<path d="M111.738 36.1251C111.74 32.9821 111.74 29.8391 111.742 26.6831C113.103 26.6831 114.506 26.6831 115.895 26.6831C120.415 26.6991 120.413 33.7131 115.894 33.7131H114.154L114.153 36.1271C113.343 36.1251 112.535 36.1251 111.738 36.1251ZM115.881 28.8431C115.314 28.8281 114.706 28.8421 114.153 28.8421C114.153 29.6111 114.153 30.7711 114.153 31.5391H115.879C117.202 31.5411 117.284 28.8561 115.881 28.8431Z" fill="white"/>
<path d="M126.052 34.9421H122.329L121.775 36.1301L119.414 36.1281V35.7771L123.666 26.5651H124.704L128.965 35.7801V36.1311H126.605L126.052 34.9421ZM124.177 30.3961L123.112 32.8771H125.27L124.177 30.3961Z" fill="white"/>
<path d="M130.277 26.6881L132.745 26.6891L132.744 33.9071H135.484L135.485 26.6891L137.954 26.6901L137.952 34.0411L138.909 34.0421V37.2001L136.925 37.1981V36.1301H130.275L130.277 26.6881Z" fill="white"/>
<path d="M141.324 36.1481L140.461 36.1461L140.463 26.6911C141.287 26.6911 142.109 26.6911 142.933 26.6911V31.3181L147.708 26.6521H148.585L148.582 36.1351C147.759 36.1351 146.924 36.1331 146.087 36.1331V31.4941L141.324 36.1481Z" fill="white"/>
<path d="M151.983 32.7911C149.596 31.1721 150.272 26.7071 153.982 26.6951C155.357 26.6951 156.759 26.6951 158.122 26.6951C158.122 29.8521 158.122 32.9941 158.122 36.1371C157.338 36.1371 156.515 36.1371 155.707 36.1371V33.3571H154.453L152.831 36.1351H150.135V35.7851L151.983 32.7911ZM155.707 31.1871C155.707 30.4311 155.707 29.6231 155.707 28.8521C155.141 28.8521 154.547 28.8391 153.98 28.8521C152.604 28.8661 152.672 31.1851 153.98 31.1871H155.707Z" fill="white"/>
<path d="M72.656 51.754L72.657 42.312C73.468 42.312 74.277 42.312 75.114 42.312L75.112 45.888H75.288C77.702 45.888 77.582 44.079 77.582 42.313C78.405 42.313 79.228 42.313 80.064 42.313C80.063 44.243 80.117 46.023 78.242 47.223L80.803 51.379V51.755H78.119L76.043 48.099C75.719 48.153 75.423 48.153 75.111 48.151L75.11 51.755C74.275 51.755 73.464 51.754 72.656 51.754Z" fill="white"/>
<path d="M83.137 51.7701H82.275L82.278 42.313C83.1 42.313 83.923 42.313 84.746 42.313L84.744 46.9411L89.521 42.274L90.398 42.2761L90.395 51.757C89.573 51.757 88.736 51.757 87.899 51.757L87.901 47.1171L83.137 51.7701Z" fill="white"/>
<path d="M97.034 45.6221C101.555 45.6241 101.552 51.7481 97.033 51.7601H92.879L92.882 42.3181L99.668 42.3191V44.4791L95.295 44.4771V45.6231H97.034V45.6221ZM95.294 47.7531V49.6011C95.847 49.6031 96.454 49.6031 97.021 49.6031C98.356 49.6031 98.341 47.7541 97.021 47.7531H95.294Z" fill="white"/>
<path d="M108.207 44.4791C106.803 44.4791 106.103 44.4791 104.712 44.4781V45.8141H107.923C107.923 46.5291 107.923 47.2431 107.923 47.9601L104.712 47.9581C104.711 48.5111 104.711 49.0511 104.711 49.6171C106.101 49.6171 106.911 49.6171 108.326 49.6171C108.326 50.3191 108.326 51.0501 108.326 51.7631C106.113 51.7631 104.495 51.7611 102.308 51.7611C102.31 48.6061 102.311 45.4491 102.311 42.3191C104.497 42.3211 105.995 42.3211 108.207 42.3221C108.207 43.0221 108.207 43.7501 108.207 44.4791Z" fill="white"/>
<path d="M110.473 51.764C110.473 48.62 110.473 45.477 110.473 42.321C111.835 42.321 113.238 42.323 114.628 42.323C119.147 42.336 119.146 49.351 114.628 49.349H112.887V51.764C112.077 51.764 111.267 51.764 110.473 51.764ZM114.614 44.481C114.048 44.466 113.441 44.481 112.887 44.481C112.887 45.249 112.887 46.409 112.887 47.178H114.614C115.936 47.178 116.016 44.494 114.614 44.481Z" fill="white"/>
<path d="M124.181 42.217C126.135 42.217 128.252 43.282 128.617 45.806C127.795 45.806 127.066 45.806 126.243 45.804C125.906 44.847 125.193 44.414 124.18 44.414C122.763 44.414 121.833 45.479 121.833 47.044C121.833 48.435 122.749 49.648 124.178 49.663C125.203 49.663 126.028 49.15 126.282 48.139C127.093 48.139 127.836 48.139 128.658 48.139C128.306 50.811 126.188 51.861 124.178 51.861C121.777 51.874 119.349 50.255 119.336 47.045C119.35 43.833 121.779 42.217 124.181 42.217Z" fill="white"/>
<path d="M138.437 51.7701C137.615 51.7701 136.791 51.7701 135.967 51.7701L135.97 44.5531H133.056L133.055 51.7701C132.234 51.7681 131.394 51.7681 130.587 51.7681L130.59 42.326C131.398 42.328 132.235 42.328 138.44 42.329L138.437 51.7701Z" fill="white"/>
<path d="M140.342 47.0621C140.344 40.5351 150.029 40.5371 150.028 47.0651C150.025 53.6091 140.341 53.6051 140.342 47.0621ZM147.56 47.0651C147.56 43.6671 142.825 43.6661 142.825 47.0641C142.824 50.4911 147.558 50.4921 147.56 47.0651Z" fill="white"/>
<path d="M151.917 51.775C151.917 48.631 151.92 45.488 151.92 42.333C153.281 42.333 154.684 42.334 156.074 42.334C160.593 42.347 160.591 49.362 156.072 49.36H154.331V51.775C153.522 51.775 152.712 51.775 151.917 51.775ZM156.059 44.49C155.493 44.478 154.886 44.49 154.334 44.49C154.334 45.261 154.33 46.421 154.33 47.188L156.059 47.19C157.381 47.19 157.461 44.506 156.059 44.49Z" fill="white"/>
<path d="M160.417 44.4921C160.417 43.7641 160.417 43.0491 160.417 42.3341L167.433 42.3361C167.431 43.0511 167.431 43.7671 167.431 44.4941H165.125L165.123 51.7781C164.325 51.7781 163.53 51.7781 162.735 51.7781L162.737 44.4941L160.417 44.4921Z" fill="white"/>
<path d="M173.893 50.5921L170.168 50.5911L169.617 51.7791L167.256 51.7771V51.4261L171.506 42.2141H172.545L176.806 51.4291V51.7801H174.447L173.893 50.5921ZM172.02 46.0471L170.953 48.5281H173.112L172.02 46.0471Z" fill="white"/>
</svg>
