<svg width="17" height="26" viewBox="0 0 17 26" fill="none" xmlns="http://www.w3.org/2000/svg">
<path d="M8.13008 0C3.63902 0 0 3.62439 0 8.11382C0 15.8764 8.13008 26 8.13008 26C8.13008 26 16.2602 15.8748 16.2602 8.11382C16.2602 3.62602 12.6211 0 8.13008 0ZM8.13008 12.6033C6.96572 12.6033 5.84904 12.1407 5.02571 11.3174C4.20238 10.494 3.73984 9.37737 3.73984 8.21301C3.73984 7.04864 4.20238 5.93197 5.02571 5.10864C5.84904 4.28531 6.96572 3.82276 8.13008 3.82276C9.29445 3.82276 10.4111 4.28531 11.2345 5.10864C12.0578 5.93197 12.5203 7.04864 12.5203 8.21301C12.5203 9.37737 12.0578 10.494 11.2345 11.3174C10.4111 12.1407 9.29445 12.6033 8.13008 12.6033Z" fill="#7774FE"/>
</svg>
