<svg width="43" height="334" viewBox="0 0 43 334" fill="none" xmlns="http://www.w3.org/2000/svg">
<g filter="url(#filter0_d_1_670)">
<path fill-rule="evenodd" clip-rule="evenodd" d="M17.2783 323.793L11.855 323.793L11.855 298.011L4 298.011L4 324.03L11.6024 330L17.1258 330L25.1348 323.673L25.1348 304.217L30.556 304.217L30.556 329.999L38.4138 329.999L38.4138 303.979L30.8292 298.011L25.2164 298.011L17.2783 304.297L17.2783 323.793ZM18.3108 304.772L25.5848 299.011L30.4627 299.011L37.3814 304.455L37.3814 328.999L31.5884 328.999L31.5884 303.217L24.1023 303.217L24.1023 323.198L16.7581 329L11.9684 329L5.03246 323.554L5.03246 299.011L10.8226 299.011L10.8226 324.793L18.3108 324.793L18.3108 304.772Z" fill="#2F80ED"/>
<path fill-rule="evenodd" clip-rule="evenodd" d="M24.1033 264.466L37.3816 264.466L37.3816 260.26L25.5015 260.26L21.1811 263.651L16.863 260.26L5.03344 260.26L5.03344 264.467L18.3111 264.467L18.3111 286.04L5.03344 286.04L5.03344 290.249L37.3736 290.249L37.3399 286.04L24.1033 286.04L24.1033 264.466ZM38.3644 285.04L38.4141 291.249L4.00098 291.249L4.00098 285.04L17.2786 285.04L17.2786 265.467L4.00098 265.467L4.00098 259.26L17.2289 259.26L21.1813 262.364L25.1357 259.26L38.4141 259.26L38.4141 265.466L25.1357 265.466L25.1357 285.04L38.3644 285.04Z" fill="#2F80ED"/>
<path fill-rule="evenodd" clip-rule="evenodd" d="M5.03344 251.497L37.3816 251.497L37.3816 247.291L5.03344 247.291L5.03344 251.497ZM38.4141 252.497L38.4141 246.291L4.00098 246.291L4.00098 252.497L38.4141 252.497Z" fill="#2F80ED"/>
<path fill-rule="evenodd" clip-rule="evenodd" d="M30.5569 233.322L4.00098 233.322L4.00098 239.529L30.8116 239.529L38.4141 233.559L38.4141 207.541L30.5569 207.541L30.5569 233.322ZM31.5894 208.541L31.5894 234.322L5.03344 234.322L5.03344 238.529L30.4457 238.529L37.3816 233.082L37.3816 208.541L31.5894 208.541Z" fill="#2F80ED"/>
<path fill-rule="evenodd" clip-rule="evenodd" d="M30.5569 194.61L4.00098 194.61L4.00098 200.816L30.8116 200.816L38.4141 194.848L38.4141 168.828L30.5569 168.828L30.5569 194.61ZM31.5894 169.828L31.5894 195.61L5.03344 195.61L5.03344 199.816L30.4458 199.816L37.3816 194.372L37.3816 169.828L31.5894 169.828Z" fill="#2F80ED"/>
<path fill-rule="evenodd" clip-rule="evenodd" d="M25.135 136.325L30.5562 136.325L30.5562 155.899L11.8553 155.899L11.8553 130.118L4.00098 130.118L4.00098 156.138L11.6034 162.106L30.8116 162.106L38.4141 156.138L38.4141 136.085L30.8287 130.118L17.2779 130.118L17.2779 149.692L25.135 149.692L25.135 136.325ZM24.1026 148.692L24.1026 135.325L31.5887 135.325L31.5887 156.899L10.8228 156.899L10.8228 131.118L5.03344 131.118L5.03344 155.661L11.9692 161.106L30.4458 161.106L37.3816 155.661L37.3816 136.561L30.4623 131.118L18.3103 131.118L18.3103 148.692L24.1026 148.692Z" fill="#2F80ED"/>
<path fill-rule="evenodd" clip-rule="evenodd" d="M24.1033 96.5725L37.3816 96.5725L37.3816 92.3651L25.5015 92.3651L21.1811 95.756L16.863 92.3651L11.9692 92.3651L5.03344 97.8087L5.03344 122.353L37.3736 122.353L37.3399 118.146L24.1033 118.146L24.1033 96.5725ZM38.3644 117.146L38.4141 123.353L4.00098 123.353L4.00098 97.3319L11.6034 91.3651L17.2289 91.3651L21.1813 94.4688L25.1357 91.3651L38.4141 91.3651L38.4141 97.5725L25.1357 97.5725L25.1357 117.146L38.3644 117.146ZM10.8228 96.5725L18.3111 96.5725L18.3111 118.146L10.8228 118.146L10.8228 96.5725ZM11.8553 117.146L11.8553 97.5725L17.2786 97.5725L17.2786 117.146L11.8553 117.146Z" fill="#2F80ED"/>
<path fill-rule="evenodd" clip-rule="evenodd" d="M10.8228 57.8229L31.5887 57.8229L31.5887 79.3963L10.8228 79.3963L10.8228 57.8229ZM37.3816 59.0591L30.4458 53.6155L11.9692 53.6155L5.03344 59.0591L5.03344 78.1574L11.9693 83.6037L30.4457 83.6037L37.3816 78.1574L37.3816 59.0591ZM38.4141 78.6341L38.4141 58.5824L30.8116 52.6155L11.6034 52.6155L4.00098 58.5824L4.00098 78.6341L11.6034 84.6037L30.8116 84.6037L38.4141 78.6341ZM11.8553 78.3963L11.8553 58.8229L30.5562 58.8229L30.5562 78.3963L11.8553 78.3963Z" fill="#2F80ED"/>
<path fill-rule="evenodd" clip-rule="evenodd" d="M38.4141 21.3444L38.4141 9.96542L30.8116 3.99998L4.00097 3.99998L4.00097 10.2067L30.5569 10.2067L30.5569 21.8228L4.00098 21.8228L4.00098 28.0295L30.5569 28.0295L30.5569 39.6476L4.00098 39.6476L4.00098 45.8543L30.8116 45.8543L38.4141 39.8848L38.4141 28.5057L33.8515 24.9251L38.4141 21.3444ZM37.3816 28.9825L32.2115 24.9251L37.3816 20.8676L37.3816 10.4423L30.4459 4.99998L5.03344 4.99998L5.03344 9.20666L31.5894 9.20666L31.5894 22.8228L5.03344 22.8228L5.03344 27.0295L31.5894 27.0295L31.5894 40.6476L5.03344 40.6476L5.03344 44.8543L30.4457 44.8543L37.3816 39.4081L37.3816 28.9825Z" fill="#2F80ED"/>
</g>
<defs>
<filter id="filter0_d_1_670" x="0" y="0" width="42.4141" height="334" filterUnits="userSpaceOnUse" color-interpolation-filters="sRGB">
<feFlood flood-opacity="0" result="BackgroundImageFix"/>
<feColorMatrix in="SourceAlpha" type="matrix" values="0 0 0 0 0 0 0 0 0 0 0 0 0 0 0 0 0 0 127 0" result="hardAlpha"/>
<feOffset/>
<feGaussianBlur stdDeviation="2"/>
<feComposite in2="hardAlpha" operator="out"/>
<feColorMatrix type="matrix" values="0 0 0 0 0.184314 0 0 0 0 0.501961 0 0 0 0 0.929412 0 0 0 1 0"/>
<feBlend mode="normal" in2="BackgroundImageFix" result="effect1_dropShadow_1_670"/>
<feBlend mode="normal" in="SourceGraphic" in2="effect1_dropShadow_1_670" result="shape"/>
</filter>
</defs>
</svg>
