<svg width="33" height="46" viewBox="0 0 33 46" fill="none" xmlns="http://www.w3.org/2000/svg">
<path fill-rule="evenodd" clip-rule="evenodd" d="M4.95223 11.5C4.95223 7.43363 8.63778 3.83333 13.5772 3.83333C18.5167 3.83333 22.2022 7.43363 22.2022 11.5C22.2022 12.5585 23.0604 13.4167 24.1189 13.4167C25.1774 13.4167 26.0356 12.5585 26.0356 11.5C26.0356 4.98091 20.2818 0 13.5772 0C6.87268 0 1.1189 4.98091 1.1189 11.5C1.1189 12.5585 1.97702 13.4167 3.03556 13.4167C4.09411 13.4167 4.95223 12.5585 4.95223 11.5ZM13.3856 9.58333C10.6333 9.58333 8.40223 11.8144 8.40223 14.5667V20.2237V26.2019C6.38919 24.4494 3.26592 24.5374 1.36481 26.5747C-0.19759 28.249 -0.445289 30.7622 0.760176 32.7093L6.17851 41.4612C7.92545 44.283 11.0079 46 14.3267 46H22.5351C27.2416 46 31.2515 42.5823 31.9973 37.9353L32.8925 32.3573C33.4944 28.6075 31.2602 24.9823 27.6401 23.8343L18.3689 20.8945V19.8548V14.5667C18.3689 11.8144 16.1378 9.58333 13.3856 9.58333ZM12.2356 14.5667C12.2356 13.9315 12.7504 13.4167 13.3856 13.4167C14.0207 13.4167 14.5356 13.9315 14.5356 14.5667V19.8548V20.8945C14.5356 22.5652 15.6176 24.0435 17.2102 24.5485L26.4814 27.4883C28.2915 28.0623 29.4086 29.8749 29.1077 31.7498L28.2124 37.3278C27.7649 40.1161 25.359 42.1667 22.5351 42.1667H14.3267C12.3354 42.1667 10.4859 41.1364 9.43778 39.4434L4.01944 30.6915C3.7244 30.2149 3.78502 29.5998 4.16743 29.19C4.69018 28.6298 5.59047 28.6718 6.05885 29.2782L8.80205 32.8295C9.30331 33.4785 10.1619 33.7366 10.9379 33.4718C11.7139 33.207 12.2356 32.4778 12.2356 31.6579V20.2237V14.5667Z" fill="url(#paint0_linear_1_547)"/>
<defs>
<linearGradient id="paint0_linear_1_547" x1="16.4951" y1="0" x2="16.4951" y2="46" gradientUnits="userSpaceOnUse">
<stop stop-color="#E1338C"/>
<stop offset="1" stop-color="#F23F66"/>
</linearGradient>
</defs>
</svg>
