<svg width="52" height="46" viewBox="0 0 52 46" fill="none" xmlns="http://www.w3.org/2000/svg">
<path fill-rule="evenodd" clip-rule="evenodd" d="M1.54817 1.60829C2.54641 0.584421 3.91082 0 5.34407 0H43.0266C44.4599 0 45.8243 0.584422 46.8225 1.60829C47.8191 2.6305 48.3707 4.0068 48.3707 5.43199V14.0544H49.6382C50.2265 14.0544 50.7806 14.2946 51.1813 14.7056C51.5805 15.1151 51.7964 15.6602 51.7964 16.2187V29.7813C51.7964 30.3398 51.5805 30.8849 51.1813 31.2944C50.7805 31.7055 50.2264 31.9456 49.6382 31.9456H48.3707V40.568C48.3707 41.9932 47.8191 43.3695 46.8225 44.3917C45.8243 45.4156 44.4599 46 43.0266 46H5.34407C3.91082 46 2.54641 45.4156 1.54817 44.3917C0.551531 43.3695 0 41.9932 0 40.568V5.43199C0 4.0068 0.551531 2.6305 1.54817 1.60829ZM44.5339 17.8912V28.1088H32.7496C31.4572 28.1088 30.2076 27.5827 29.2785 26.6298C28.3478 25.6752 27.8166 24.3704 27.8166 23C27.8166 21.6296 28.3478 20.3248 29.2785 19.3702C30.2076 18.4173 31.4572 17.8912 32.7496 17.8912H44.5339ZM44.5339 14.0544H32.7496C30.4078 14.0544 28.172 15.009 26.5313 16.6918C24.8923 18.3729 23.9798 20.6429 23.9798 23C23.9798 25.3571 24.8923 27.6271 26.5313 29.3082C28.172 30.991 30.4078 31.9456 32.7496 31.9456H44.5339V40.568C44.5339 41.0066 44.3636 41.4176 44.0754 41.7133C43.7887 42.0073 43.4105 42.1632 43.0266 42.1632H5.34407C4.96022 42.1632 4.58196 42.0073 4.29532 41.7133C4.00708 41.4176 3.83677 41.0066 3.83677 40.568V5.43199C3.83677 4.99344 4.00708 4.58235 4.29532 4.2867C4.58196 3.99271 4.96022 3.83677 5.34407 3.83677H43.0266C43.4105 3.83677 43.7887 3.99271 44.0754 4.2867C44.3636 4.58235 44.5339 4.99344 44.5339 5.43199V14.0544Z" fill="url(#paint0_linear_1_816)"/>
<defs>
<linearGradient id="paint0_linear_1_816" x1="25.8982" y1="1.91838" x2="25.8982" y2="44.0816" gradientUnits="userSpaceOnUse">
<stop stop-color="#E1338C"/>
<stop offset="1" stop-color="#F23F66"/>
</linearGradient>
</defs>
</svg>
