<svg width="42" height="46" viewBox="0 0 42 46" fill="none" xmlns="http://www.w3.org/2000/svg">
<path fill-rule="evenodd" clip-rule="evenodd" d="M36.684 11.7984L21 18.9375L5.31596 11.7984L21 3.83336L36.684 11.7984ZM38.1818 15.3256L22.9091 22.2775V33.0665V38.3823V39.9999V40.2541V40.2677V40.2811V40.2943V40.3071V40.3198V40.3321V40.3442V40.3559V40.3675V40.3787V40.3897V40.4004V40.4108V40.4209V40.4308V40.4404V40.555V40.5842V40.5865V40.5885V40.5902V40.5916V40.5927V40.5939L21 40.5941L19.0909 40.5939V40.5927V40.5916V40.5902V40.5885V40.5865V40.5842V40.5816V40.5787V40.5755V40.572V40.5682V40.5641V40.5597V40.555V40.4404V40.4308V40.4209V40.4108V40.4004V40.3897V40.3787V40.3675V40.3559V40.3442V40.3321V40.3198V40.3071V40.2943V40.2811V40.2677V40.2541V40.2401V40.2259V40.1967V40.1665V40.151V40.1352V40.1192V40.1029V40.0696V40.0525V40.0352V39.9999V38.3823V33.0665V22.2775L3.81818 15.3256V33.4409L19.208 41.2566C19.1323 41.0501 19.0909 40.8268 19.0909 40.5939L21 40.5941L22.9091 40.5939C22.9091 40.8268 22.8677 41.0501 22.792 41.2566L38.1818 33.4409V15.3256ZM2.09475 9.13845C0.809952 9.79093 0 11.1136 0 12.5591V33.4409C0 34.8865 0.809953 36.2091 2.09475 36.8615L19.2766 45.5873C20.3602 46.1376 21.6398 46.1376 22.7234 45.5873L39.9052 36.8615C41.19 36.2091 42 34.8865 42 33.4409V12.5591C42 11.1135 41.19 9.79093 39.9052 9.13845L22.7234 0.412721C21.6398 -0.137574 20.3602 -0.137574 19.2766 0.412721L2.09475 9.13845Z" fill="url(#paint0_linear_1_554)"/>
<defs>
<linearGradient id="paint0_linear_1_554" x1="21" y1="0" x2="21" y2="46" gradientUnits="userSpaceOnUse">
<stop stop-color="#E1338C"/>
<stop offset="1" stop-color="#F23F66"/>
</linearGradient>
</defs>
</svg>
