<svg width="26" height="26" viewBox="0 0 26 26" fill="none" xmlns="http://www.w3.org/2000/svg">
<path d="M12.9999 1.7334C6.77753 1.7334 1.73328 6.77765 1.73328 13.0001C1.73328 19.2225 6.77753 24.2667 12.9999 24.2667C19.2224 24.2667 24.2666 19.2225 24.2666 13.0001C24.2666 6.77765 19.2224 1.7334 12.9999 1.7334ZM18.7046 11.9606C17.5082 11.9606 16.3441 11.5724 15.4478 10.9154L15.4407 15.3824C15.4399 16.2102 15.1868 17.018 14.715 17.6981C14.2432 18.3782 13.5752 18.8982 12.8002 19.1888C12.0251 19.4794 11.1799 19.5268 10.3773 19.3245C9.57465 19.1222 8.85279 18.68 8.30803 18.0568C7.76327 17.4336 7.42151 16.6591 7.32837 15.8367C7.23524 15.0142 7.39514 14.1829 7.78675 13.4536C8.17836 12.7244 8.78305 12.132 9.52013 11.7553C10.2572 11.3787 11.0916 11.2358 11.912 11.3458V13.5395C11.525 13.4251 11.1118 13.4355 10.7311 13.5692C10.3504 13.7029 10.0214 13.9531 9.79081 14.2843C9.56024 14.6154 9.43979 15.0108 9.44655 15.4143C9.4533 15.8177 9.58692 16.2088 9.82845 16.5321C10.07 16.8554 10.4072 17.0944 10.7922 17.2152C11.1772 17.3361 11.5905 17.3327 11.9734 17.2055C12.3564 17.0782 12.6895 16.8337 12.9257 16.5065C13.1618 16.1792 13.2889 15.786 13.289 15.3824V6.54519H15.5456C15.5456 6.96001 15.6273 7.37076 15.7861 7.754C15.9448 8.13725 16.1775 8.48547 16.4708 8.77879C16.7642 9.0721 17.1124 9.30478 17.4956 9.46352C17.8789 9.62226 18.2896 9.70395 18.7044 9.70395L18.7046 11.9606Z" fill="#7774FE"/>
</svg>
