<svg width="78" height="25" viewBox="0 0 78 25" fill="none" xmlns="http://www.w3.org/2000/svg">
<path d="M50.8042 0C45.2659 0 40.3167 2.83965 40.3167 8.08611C40.3167 14.1028 49.0944 14.5184 49.0944 17.541C49.0944 18.8137 47.62 19.953 45.1017 19.953C41.5279 19.953 38.8568 18.3611 38.8568 18.3611L37.7138 23.6553C37.7138 23.6553 40.7909 25 44.8762 25C50.9313 25 55.696 22.0209 55.696 16.6848C55.696 10.327 46.8817 9.92381 46.8817 7.11831C46.8817 6.12133 48.0921 5.02894 50.6031 5.02894C53.4363 5.02894 55.7478 6.18669 55.7478 6.18669L56.8664 1.07332C56.8664 1.07332 54.3512 0 50.8042 0ZM0.134104 0.385915L0 1.15774C0 1.15774 2.32997 1.57957 4.42849 2.42101C7.13051 3.38589 7.32299 3.9476 7.77806 5.69223L12.7369 24.602H19.3842L29.6249 0.385915H22.9928L16.4125 16.8506L13.7274 2.89436C13.4812 1.29708 12.2338 0.385915 10.707 0.385915H0.134104ZM32.2917 0.385915L27.0891 24.602H33.4133L38.5977 0.385915H32.2917ZM67.5642 0.385915C66.0392 0.385915 65.2312 1.19357 64.6383 2.60492L55.3729 24.602H62.005L63.2881 20.9358H71.3679L72.1482 24.602H78L72.8949 0.385915H67.5642ZM68.4268 6.92837L70.3926 16.0154H65.126L68.4268 6.92837Z" fill="white"/>
</svg>
