<svg width="26" height="26" viewBox="0 0 26 26" fill="none" xmlns="http://www.w3.org/2000/svg">
<path d="M12.9999 1.7334C6.77765 1.7334 1.73328 6.7745 1.73328 12.9928C1.73328 19.211 6.77765 24.2521 12.9999 24.2521C19.2222 24.2521 24.2666 19.211 24.2666 12.9928C24.2666 6.7745 19.2223 1.7334 12.9999 1.7334ZM19.4548 17.9309L17.4793 17.9584C17.4793 17.9584 17.0546 18.0424 16.496 17.6591C15.757 17.1523 15.06 15.8342 14.517 16.0061C13.9664 16.1808 13.9836 17.3665 13.9836 17.3665C13.9836 17.3665 13.9876 17.6198 13.862 17.7546C13.7258 17.9017 13.4587 17.9309 13.4587 17.9309H12.5744C12.5744 17.9309 10.6232 18.0483 8.90519 16.2608C7.03138 14.3109 5.37651 10.4416 5.37651 10.4416C5.37651 10.4416 5.28096 10.188 5.38454 10.0652C5.50123 9.92749 5.8184 9.91866 5.8184 9.91866L7.93229 9.90475C7.93229 9.90475 8.13142 9.93792 8.27407 10.0425C8.39157 10.1289 8.45741 10.2902 8.45741 10.2902C8.45741 10.2902 8.79893 11.1536 9.25153 11.9349C10.1345 13.4598 10.5459 13.7933 10.8456 13.6299C11.2827 13.3918 11.1516 11.4743 11.1516 11.4743C11.1516 11.4743 11.1596 10.7781 10.9318 10.4683C10.7552 10.2281 10.4222 10.1581 10.2753 10.1383C10.1562 10.1225 10.3516 9.84644 10.6045 9.7226C10.9848 9.53644 11.6566 9.52574 12.4505 9.53403C13.0687 9.54019 13.2467 9.5787 13.4887 9.63701C14.2172 9.81301 13.9699 10.4921 13.9699 12.121C13.9699 12.6426 13.876 13.3765 14.2525 13.6197C14.4145 13.724 14.8106 13.6355 15.8009 11.9544C16.2706 11.1579 16.6226 10.2212 16.6226 10.2212C16.6226 10.2212 16.6997 10.0543 16.819 9.98259C16.9413 9.90957 17.1062 9.93204 17.1062 9.93204L19.3306 9.91813C19.3306 9.91813 19.9992 9.83842 20.1074 10.1399C20.2208 10.4566 19.8574 11.1953 18.9487 12.4059C17.4566 14.3935 17.2906 14.2076 18.5293 15.3567C19.7128 16.4544 19.958 16.9889 19.9984 17.0552C20.4885 17.8672 19.4548 17.9309 19.4548 17.9309Z" fill="#7774FE"/>
</svg>
